<svg viewBox="0 0 16 16" xmlns="http://www.w3.org/2000/svg" xmlns:xlink="http://www.w3.org/1999/xlink" width="16.000000" height="16.000000" fill="none">
	<defs>
		<filter id="pixso_custom_mask_type_alpha">
			<feColorMatrix type="matrix" values="0 0 0 0 1 0 0 0 0 1 0 0 0 0 1 0 0 0 1 0 " />
		</filter>
	</defs>
	<mask id="mask_0" width="16.000000" height="16.000000" x="0.000000" y="0.000000" maskUnits="userSpaceOnUse">
		<g filter="url(#pixso_custom_mask_type_alpha)">
			<g id="mask0_280_407">
				<rect id="Rectangle 236" width="16.000000" height="16.000000" x="0.000000" y="0.000000" fill="rgb(217,217,217)" />
			</g>
		</g>
	</mask>
	<rect id="icon/colors 2" width="16.000000" height="16.000000" x="0.000000" y="0.000000" />
	<g id="mask" mask="url(#mask_0)">
		<g id="Group 1000004519">
			<path id="Vector 2356" d="M5.77886 13.346L1.98652 9.55365C1.87974 9.44632 1.79963 9.32826 1.74618 9.19949C1.69274 9.0706 1.66602 8.9367 1.66602 8.79782C1.66602 8.65893 1.69274 8.52544 1.74618 8.39732C1.79963 8.2691 1.87974 8.15154 1.98652 8.04465L5.75586 4.28565L3.91219 2.46782L4.68902 1.66016L11.0743 8.05165C11.1808 8.1581 11.259 8.27554 11.309 8.40398C11.359 8.53244 11.384 8.66626 11.384 8.80549C11.384 8.9446 11.359 9.07837 11.309 9.20682C11.259 9.33526 11.1806 9.45304 11.0737 9.56016L7.28784 13.346C7.18096 13.4528 7.0634 13.5329 6.93518 13.5863C6.80707 13.6397 6.67358 13.6665 6.53468 13.6665C6.39579 13.6665 6.26191 13.6397 6.13302 13.5863C6.00424 13.5329 5.88618 13.4528 5.77886 13.346ZM6.53019 5.05998L2.92502 8.66516C2.89935 8.69082 2.88224 8.71649 2.87368 8.74216C2.86512 8.76782 2.86086 8.79344 2.86086 8.81898L10.1993 8.81898C10.1993 8.79344 10.1951 8.76782 10.1865 8.74216C10.178 8.71649 10.1609 8.69082 10.1352 8.66516L6.53019 5.05998ZM13.039 13.6665C12.6818 13.6665 12.3814 13.5409 12.1379 13.2898C11.8942 13.0386 11.7723 12.7308 11.7723 12.3665C11.7723 12.0964 11.8356 11.8387 11.9622 11.5933C12.0886 11.3481 12.2399 11.1126 12.416 10.887L13.039 10.1023L13.6955 10.887C13.8647 11.1126 14.0143 11.3481 14.1441 11.5933C14.274 11.8387 14.3391 12.0964 14.3391 12.3665C14.3391 12.7308 14.2117 13.0386 13.9571 13.2898C13.7024 13.5409 13.3963 13.6665 13.039 13.6665Z" fill="rgb(28,27,31)" fill-rule="evenodd" />
		</g>
	</g>
</svg>
