<svg viewBox="0 0 16 16" xmlns="http://www.w3.org/2000/svg" xmlns:xlink="http://www.w3.org/1999/xlink" width="16.000000" height="16.000000" fill="none">
	<rect id="icon/Palette 2" width="16.000000" height="16.000000" x="0.000000" y="0.000000" />
	<path id="Vector 2345" d="M10.0007 10.3333C11.0428 9.15689 14.6673 9.69512 14.6673 7.99992C14.6673 4.31802 11.6826 1.33325 8.00065 1.33325C4.31875 1.33325 1.33398 4.31802 1.33398 7.99992C1.33398 11.6818 4.31875 14.6666 8.00065 14.6666C9.98735 14.6666 8.77929 11.7119 10.0007 10.3333Z" fill-rule="nonzero" stroke="rgb(25,25,25)" stroke-linejoin="round" stroke-width="1.200000" />
	<path id="Vector 2346" d="M10.334 4.66675C10.334 4.11445 9.88628 3.66675 9.33398 3.66675C8.78168 3.66675 8.33398 4.11445 8.33398 4.66675C8.33398 5.21905 8.78168 5.66675 9.33398 5.66675C9.88628 5.66675 10.334 5.21905 10.334 4.66675Z" fill-rule="nonzero" stroke="rgb(25,25,25)" stroke-linejoin="round" stroke-width="1.200000" />
	<path id="Vector 2347" d="M6.33398 6C6.33398 5.4477 5.88628 5 5.33398 5C4.78168 5 4.33398 5.4477 4.33398 6C4.33398 6.5523 4.78168 7 5.33398 7C5.88628 7 6.33398 6.5523 6.33398 6Z" fill-rule="nonzero" stroke="rgb(25,25,25)" stroke-linejoin="round" stroke-width="1.200000" />
	<path id="Vector 2348" d="M6.66602 10.3333C6.66602 9.78095 6.21832 9.33325 5.66602 9.33325C5.11372 9.33325 4.66602 9.78095 4.66602 10.3333C4.66602 10.8856 5.11372 11.3333 5.66602 11.3333C6.21832 11.3333 6.66602 10.8856 6.66602 10.3333Z" fill-rule="nonzero" stroke="rgb(25,25,25)" stroke-linejoin="round" stroke-width="1.200000" />
</svg>
