<svg width="46" xmlns="http://www.w3.org/2000/svg" height="46" fill="none"><g class="fills"><rect rx="0" ry="0" width="46" height="46" transform="matrix(1.000000, 0.000000, 0.000000, 1.000000, 0.000000, 0.000000)" class="frame-background"/></g><g class="frame-children"><g class="feather feather-home" style="fill: rgb(0, 0, 0);"><path d="M5.750,17.250L23.000,3.833L40.250,17.250L40.250,38.333C40.250,40.450,38.534,42.167,36.417,42.167L9.583,42.167C7.466,42.167,5.750,40.450,5.750,38.333Z" fill="none" style="fill: none;" class="fills"/><g fill="none" stroke-linejoin="round" class="strokes"><path d="M5.750,17.250L23.000,3.833L40.250,17.250L40.250,38.333C40.250,40.450,38.534,42.167,36.417,42.167L9.583,42.167C7.466,42.167,5.750,40.450,5.750,38.333Z" style="fill: none; stroke-width: 4; stroke: rgb(0, 0, 0); stroke-opacity: 1;" class="stroke-shape"/></g><path d="M17.250,42.167L17.250,23.000L28.750,23.000L28.750,42.167" fill="none" style="fill: none;" class="fills"/><g fill="none" stroke-linejoin="round" class="strokes"><path d="M17.250,42.167L17.250,23.000L28.750,23.000L28.750,42.167" style="fill: none; stroke-width: 4; stroke: rgb(0, 0, 0); stroke-opacity: 1;" class="stroke-shape"/></g></g></g></svg>