<svg width="64" xmlns="http://www.w3.org/2000/svg" height="64" fill="none"><g class="fills"><rect rx="0" ry="0" width="64" height="64" class="frame-background"/></g><g style="fill: rgb(0, 0, 0);" class="frame-children"><path d="M49.011 64H1.928A1.925 1.925 0 0 1 0 62.072V14.988c0-1.066.861-1.928 1.928-1.928h47.083c1.066 0 1.928.862 1.928 1.928v47.084A1.93 1.93 0 0 1 49.011 64ZM3.855 60.145h43.228V16.916H3.855Z" class="fills"/><path d="M62.072 52.416h-13.06a1.926 1.926 0 0 1-1.927-1.928c0-1.066.861-1.928 1.927-1.928h11.133V3.855H15.44v11.132a1.925 1.925 0 0 1-1.928 1.928 1.925 1.925 0 0 1-1.927-1.928V1.928C11.585.861 12.446 0 13.512 0h48.56C63.139 0 64 .861 64 1.928v48.561a1.925 1.925 0 0 1-1.928 1.927Z" class="fills"/></g></svg>