<svg width="47.5" xmlns="http://www.w3.org/2000/svg" height="62.5" fill="none"><path d="M38.75 20h-30a1.254 1.254 0 0 0-1.25 1.25v30a1.254 1.254 0 0 0 1.25 1.25h30A1.252 1.252 0 0 0 40 51.25v-30A1.25 1.25 0 0 0 38.75 20ZM15 35h-5v-5h5Zm2.5-5h20v5h-20ZM10 37.5h5v5h-5Zm7.5 0h20v5h-20Zm20-10h-20v-5h20Zm-22.5-5v5h-5v-5ZM10 45h5v5h-5Zm7.5 5v-5h20v5Zm29.9-39.237a1.27 1.27 0 0 0-.262-.401l-10-10a1.277 1.277 0 0 0-.4-.262 1.363 1.363 0 0 0-.488-.1h-35A1.254 1.254 0 0 0 0 1.25v60a1.252 1.252 0 0 0 1.25 1.25h45a1.252 1.252 0 0 0 1.25-1.25v-50a1.354 1.354 0 0 0-.1-.487Zm-9.9-6.5L43.237 10H37.5ZM2.5 60V2.5H35v8.75a1.254 1.254 0 0 0 1.25 1.25H45V60Z" class="fills" style="fill: rgb(0, 0, 0);"/></svg>