<svg width="22.000000" height="18.615356" viewBox="0 0 22 18.6154" fill="none"
    xmlns="http://www.w3.org/2000/svg" xmlns:xlink="http://www.w3.org/1999/xlink">
    <desc>
        Created with Pixso.
    </desc>
    <defs />
    <rect id="icon/webpage" width="22.000000" height="18.615385" fill="#FFFFFF" fill-opacity="0" />
    <path id="path"
        d="M20.3 0L1.69 0C1.46 0 1.25 0.04 1.04 0.12C0.83 0.21 0.65 0.33 0.49 0.49C0.33 0.65 0.21 0.83 0.12 1.04C0.04 1.25 0 1.46 0 1.69L0 16.92C0 17.14 0.04 17.36 0.12 17.57C0.21 17.77 0.33 17.96 0.49 18.11C0.65 18.27 0.83 18.4 1.04 18.48C1.25 18.57 1.46 18.61 1.69 18.61L20.3 18.61C20.53 18.61 20.74 18.57 20.95 18.48C21.16 18.4 21.34 18.27 21.5 18.11C21.66 17.96 21.78 17.77 21.87 17.57C21.95 17.36 22 17.14 22 16.92L22 1.69C22 1.46 21.95 1.25 21.87 1.04C21.78 0.83 21.66 0.65 21.5 0.49C21.34 0.33 21.16 0.21 20.95 0.12C20.74 0.04 20.53 0 20.3 0ZM20.3 1.69L20.3 5.07L1.69 5.07L1.69 1.69L20.3 1.69ZM20.3 16.92L1.69 16.92L1.69 6.76L20.3 6.76L20.3 16.92Z"
        fill="#000000" fill-opacity="1.000000" fill-rule="nonzero" />
</svg>