<svg width="64" xmlns="http://www.w3.org/2000/svg" height="64" fill="none"><g class="fills"><rect rx="0" ry="0" width="64" height="64" class="frame-background"/></g><g class="frame-children"><g class="feather feather-message-square" style="fill: rgb(0, 0, 0);"><path d="M56 40a5.333 5.333 0 0 1-5.333 5.333h-32L8 56V13.333A5.333 5.333 0 0 1 13.333 8h37.334A5.333 5.333 0 0 1 56 13.333Z" fill="none" style="fill: none;" class="fills"/><g fill="none" stroke-linejoin="round" class="strokes"><path d="M56 40a5.333 5.333 0 0 1-5.333 5.333h-32L8 56V13.333A5.333 5.333 0 0 1 13.333 8h37.334A5.333 5.333 0 0 1 56 13.333Z" style="fill: none; stroke-width: 4; stroke: rgb(0, 0, 0); stroke-opacity: 1;" class="stroke-shape"/></g></g></g></svg>