<svg width="16.000000" height="23.247253" viewBox="0 0 16 23.2473" fill="none"
    xmlns="http://www.w3.org/2000/svg" xmlns:xlink="http://www.w3.org/1999/xlink">
    <desc>
        Created with Pixso.
    </desc>
    <defs />
    <path id="path"
        d="M14.06 7.98C15.22 7.18 15.99 5.86 15.99 4.36C15.99 1.95 14.03 0 11.62 0L4.35 0C1.95 0 0 1.95 0 4.36C0 5.87 0.76 7.2 1.93 7.99C0.76 8.77 0 10.1 0 11.61C0 13.12 0.77 14.46 1.94 15.24C0.77 16.03 0 17.37 0 18.88C0 21.28 1.95 23.24 4.35 23.24C6.76 23.24 8.71 21.28 8.71 18.88L8.71 14.83C9.49 15.53 10.52 15.96 11.64 15.96C14.04 15.96 16 14 16 11.59C16 10.09 15.23 8.76 14.06 7.98ZM7.27 18.88C7.27 20.49 5.96 21.79 4.35 21.79C2.75 21.79 1.44 20.49 1.44 18.88C1.44 17.27 2.75 15.97 4.35 15.97L7.27 15.97L7.27 18.88ZM7.27 14.52L4.35 14.52C2.75 14.52 1.44 13.22 1.44 11.61C1.44 10.1 2.59 8.86 4.05 8.71L4.07 8.71C4.16 8.7 4.26 8.69 4.35 8.69L7.27 8.69L7.27 14.52ZM7.27 7.27L4.35 7.27C4.26 7.27 4.16 7.27 4.07 7.26L4.05 7.26C2.59 7.11 1.44 5.86 1.44 4.36C1.44 2.75 2.75 1.44 4.35 1.44L7.27 1.44L7.27 7.27ZM8.71 1.44L11.62 1.44C13.23 1.44 14.54 2.75 14.54 4.36C14.54 5.85 13.41 7.08 11.96 7.25C11.85 7.27 11.74 7.27 11.62 7.27L8.71 7.27L8.71 1.44ZM11.64 14.51C10.03 14.51 8.72 13.2 8.72 11.59C8.72 10.13 9.8 8.92 11.21 8.72C11.35 8.69 11.49 8.68 11.64 8.68C11.75 8.68 11.86 8.69 11.97 8.7C13.42 8.86 14.55 10.1 14.55 11.59C14.55 13.2 13.24 14.51 11.64 14.51Z"
        fill="#000000" fill-opacity="1.000000" fill-rule="nonzero" />
</svg>