<svg width="22.004395" height="21.130798" viewBox="0 0 22.0044 21.1308" fill="none"
    xmlns="http://www.w3.org/2000/svg" xmlns:xlink="http://www.w3.org/1999/xlink">
    <desc>
        Created with Pixso.
    </desc>
    <defs />
    <path id="path"
        d="M12.32 5.28L12.32 10.06L16.3 12.45C16.4 12.51 16.48 12.58 16.55 12.68C16.62 12.77 16.67 12.88 16.7 12.99C16.73 13.1 16.73 13.22 16.71 13.33C16.7 13.45 16.66 13.55 16.6 13.65C16.54 13.75 16.46 13.84 16.37 13.91C16.27 13.98 16.17 14.03 16.06 14.06C15.94 14.08 15.83 14.09 15.71 14.07C15.6 14.06 15.49 14.02 15.39 13.96L10.99 11.32C10.85 11.24 10.75 11.13 10.67 10.99C10.6 10.86 10.56 10.72 10.56 10.56L10.56 5.28C10.56 5.16 10.58 5.05 10.63 4.94C10.67 4.83 10.74 4.74 10.82 4.66C10.9 4.57 11 4.51 11.1 4.46C11.21 4.42 11.32 4.4 11.44 4.4C11.56 4.4 11.67 4.42 11.78 4.46C11.89 4.51 11.98 4.57 12.06 4.66C12.15 4.74 12.21 4.83 12.25 4.94C12.3 5.05 12.32 5.16 12.32 5.28ZM11.44 6.1e-5C10.75 -0.01 10.06 0.06 9.38 0.19C8.7 0.33 8.03 0.53 7.39 0.8C6.75 1.06 6.14 1.39 5.57 1.77C4.99 2.16 4.46 2.6 3.97 3.09C3.17 3.9 2.45 4.68 1.76 5.5L1.76 3.52C1.76 3.4 1.73 3.29 1.69 3.18C1.64 3.07 1.58 2.98 1.5 2.89C1.42 2.81 1.32 2.75 1.21 2.7C1.1 2.66 0.99 2.64 0.88 2.64C0.76 2.64 0.65 2.66 0.54 2.7C0.43 2.75 0.34 2.81 0.25 2.89C0.17 2.98 0.11 3.07 0.06 3.18C0.02 3.29 0 3.4 0 3.52L0 7.92C0 8.04 0.02 8.15 0.06 8.26C0.11 8.36 0.17 8.46 0.25 8.54C0.34 8.62 0.43 8.69 0.54 8.73C0.65 8.78 0.76 8.8 0.88 8.8L5.28 8.8C5.39 8.8 5.51 8.78 5.61 8.73C5.72 8.69 5.82 8.62 5.9 8.54C5.98 8.46 6.05 8.36 6.09 8.26C6.14 8.15 6.16 8.04 6.16 7.92C6.16 7.8 6.14 7.69 6.09 7.58C6.05 7.47 5.98 7.38 5.9 7.3C5.82 7.21 5.72 7.15 5.61 7.11C5.51 7.06 5.39 7.04 5.28 7.04L2.75 7.04C3.53 6.11 4.32 5.24 5.21 4.33C5.41 4.13 5.63 3.94 5.85 3.76C6.07 3.58 6.3 3.41 6.54 3.25C6.77 3.09 7.02 2.94 7.27 2.8C7.52 2.67 7.78 2.54 8.05 2.43C8.31 2.32 8.58 2.23 8.85 2.14C9.13 2.06 9.41 1.99 9.69 1.93C9.97 1.87 10.25 1.83 10.54 1.8C10.82 1.77 11.11 1.76 11.39 1.76C11.68 1.75 11.97 1.77 12.25 1.79C12.54 1.82 12.82 1.86 13.1 1.91C13.38 1.97 13.66 2.04 13.94 2.12C14.21 2.2 14.48 2.29 14.75 2.4C15.01 2.51 15.27 2.63 15.53 2.76C15.78 2.9 16.03 3.04 16.27 3.2C16.51 3.36 16.74 3.52 16.96 3.7C17.18 3.88 17.4 4.07 17.6 4.27C17.81 4.48 18 4.69 18.18 4.91C18.37 5.13 18.54 5.35 18.7 5.59C18.87 5.83 19.02 6.07 19.15 6.32C19.29 6.57 19.42 6.83 19.53 7.09C19.64 7.36 19.74 7.62 19.83 7.9C19.92 8.17 19.99 8.45 20.05 8.73C20.11 9.01 20.15 9.29 20.19 9.58C20.22 9.86 20.24 10.15 20.24 10.43C20.24 10.72 20.23 11.01 20.21 11.29C20.19 11.58 20.15 11.86 20.1 12.14C20.05 12.42 19.98 12.7 19.9 12.98C19.82 13.25 19.73 13.53 19.63 13.79C19.52 14.06 19.4 14.32 19.27 14.57C19.14 14.83 19 15.08 18.84 15.32C18.69 15.56 18.52 15.79 18.35 16.02C18.17 16.24 17.98 16.46 17.78 16.66C17.58 16.87 17.37 17.07 17.16 17.25C16.94 17.44 16.71 17.62 16.48 17.78C16.24 17.94 16 18.1 15.75 18.24C15.5 18.38 15.24 18.5 14.98 18.62C14.72 18.73 14.45 18.84 14.18 18.93C13.91 19.02 13.63 19.09 13.35 19.15C13.07 19.22 12.79 19.26 12.5 19.3C12.22 19.33 11.93 19.36 11.65 19.36C11.36 19.37 11.08 19.36 10.79 19.34C10.5 19.32 10.22 19.29 9.94 19.24C9.66 19.19 9.38 19.13 9.1 19.05C8.82 18.97 8.55 18.88 8.28 18.78C8.02 18.68 7.75 18.56 7.5 18.43C7.24 18.31 6.99 18.17 6.75 18.01C6.51 17.86 6.27 17.7 6.05 17.52C5.82 17.35 5.6 17.16 5.39 16.96C5.31 16.88 5.21 16.82 5.1 16.78C4.99 16.74 4.88 16.72 4.76 16.72C4.65 16.73 4.53 16.75 4.43 16.8C4.32 16.85 4.23 16.91 4.15 17C4.07 17.08 4.01 17.18 3.96 17.29C3.92 17.4 3.9 17.51 3.91 17.63C3.91 17.75 3.94 17.86 3.98 17.96C4.03 18.07 4.1 18.16 4.18 18.24C4.34 18.39 4.5 18.53 4.66 18.67C4.83 18.81 5 18.94 5.17 19.07C5.34 19.2 5.52 19.32 5.7 19.43C5.88 19.55 6.06 19.66 6.25 19.77C6.44 19.87 6.63 19.97 6.82 20.07C7.01 20.16 7.21 20.25 7.41 20.33C7.61 20.41 7.81 20.49 8.01 20.56C8.21 20.62 8.42 20.69 8.62 20.75C8.83 20.8 9.04 20.85 9.25 20.9C9.46 20.94 9.67 20.98 9.88 21.01C10.09 21.04 10.31 21.07 10.52 21.09C10.73 21.1 10.95 21.12 11.16 21.12C11.38 21.13 11.59 21.13 11.81 21.12C12.02 21.11 12.23 21.1 12.45 21.08C12.66 21.06 12.87 21.03 13.09 21C13.3 20.96 13.51 20.92 13.72 20.88C13.93 20.83 14.14 20.78 14.34 20.72C14.55 20.66 14.75 20.59 14.95 20.52C15.16 20.45 15.36 20.37 15.55 20.29C15.75 20.21 15.95 20.12 16.14 20.02C16.33 19.93 16.52 19.82 16.71 19.72C16.89 19.61 17.07 19.5 17.25 19.38C17.43 19.26 17.61 19.14 17.78 19.01C17.95 18.88 18.12 18.75 18.28 18.61C18.44 18.47 18.6 18.32 18.76 18.17C18.91 18.03 19.06 17.87 19.21 17.71C19.35 17.56 19.49 17.4 19.63 17.23C19.76 17.06 19.89 16.89 20.02 16.72C20.14 16.54 20.26 16.37 20.38 16.18C20.49 16 20.6 15.82 20.7 15.63C20.81 15.44 20.9 15.25 21 15.06C21.09 14.86 21.17 14.66 21.25 14.47C21.33 14.27 21.4 14.06 21.47 13.86C21.54 13.66 21.6 13.45 21.65 13.24C21.71 13.04 21.76 12.83 21.8 12.62C21.84 12.41 21.87 12.19 21.9 11.98C21.93 11.77 21.95 11.56 21.97 11.34C21.99 11.13 22 10.91 22 10.7C22 10.48 22 10.27 21.99 10.06C21.98 9.84 21.96 9.63 21.94 9.41C21.91 9.2 21.88 8.99 21.85 8.78C21.81 8.57 21.77 8.36 21.72 8.15C21.67 7.94 21.62 7.73 21.55 7.53C21.49 7.32 21.42 7.12 21.35 6.92C21.28 6.71 21.2 6.52 21.11 6.32C21.02 6.12 20.93 5.93 20.83 5.74C20.74 5.55 20.63 5.36 20.52 5.17C20.41 4.99 20.3 4.81 20.18 4.63C20.06 4.45 19.93 4.28 19.8 4.11C19.67 3.94 19.54 3.77 19.39 3.61C19.25 3.45 19.11 3.29 18.96 3.14C18.81 2.99 18.65 2.84 18.49 2.7C18.33 2.55 18.17 2.42 18 2.28C17.83 2.15 17.66 2.02 17.48 1.9C17.31 1.78 17.13 1.66 16.94 1.55C16.76 1.43 16.58 1.33 16.39 1.23C16.2 1.13 16 1.03 15.81 0.94C15.61 0.85 15.42 0.77 15.22 0.69C15.02 0.62 14.81 0.55 14.61 0.48C14.4 0.42 14.2 0.36 13.99 0.31C13.78 0.26 13.57 0.21 13.36 0.17C13.15 0.13 12.94 0.1 12.72 0.07C12.51 0.05 12.3 0.03 12.08 0.02C11.87 0 11.66 0 11.44 6.1e-5Z"
        fill="#000000" fill-opacity="1.000000" fill-rule="nonzero" />
</svg>