<svg width="64" xmlns="http://www.w3.org/2000/svg" height="64" fill="none"><g class="fills"><rect rx="0" ry="0" width="64" height="64" class="frame-background"/></g><g style="fill: rgb(0, 0, 0);" class="frame-children"><path d="m37.845 10.513 3.915 3.914 9.107-9.106a5.518 5.518 0 0 1 7.829-.013 5.527 5.527 0 0 1-.013 7.829l-9.106 9.107 3.914 3.914a3.667 3.667 0 0 1-.006 5.205c-1.436 1.436-3.781 1.43-5.228-.016l-15.6-15.6a3.684 3.684 0 0 1-.017-5.228 3.68 3.68 0 0 1 5.205-.006Zm-7.793 7.839 15.6 15.601c2.882 2.882 7.561 2.894 10.439.016a7.35 7.35 0 0 0 .006-10.415l-1.309-1.31 6.501-6.501c3.611-3.611 3.614-9.439.013-13.041-3.612-3.612-9.43-3.597-13.041.013L41.76 9.216l-1.31-1.309c-2.875-2.876-7.537-2.872-10.416.006-2.889 2.89-2.873 7.549.018 10.439Z" fill-rule="evenodd" class="fills"/><path d="M1.374 49.602a1.845 1.845 0 0 0-.535 1.166L.005 62.021a1.843 1.843 0 0 0 1.974 1.974l11.252-.834a1.845 1.845 0 0 0 1.167-.535L45.664 31.36a1.842 1.842 0 1 0-2.605-2.606L12.27 59.543l-8.434.627.621-8.44 30.788-30.789a1.84 1.84 0 0 0 0-2.605 1.84 1.84 0 0 0-2.605 0Z" fill-rule="evenodd" class="fills"/></g></svg>